<?xml version="1.0" standalone="no"?>
<!DOCTYPE svg PUBLIC "-//W3C//DTD SVG 20010904//EN"
 "http://www.w3.org/TR/2001/REC-SVG-20010904/DTD/svg10.dtd">
<svg version="1.0" xmlns="http://www.w3.org/2000/svg"
 width="135.000000pt" height="135.000000pt" viewBox="0 0 135.000000 135.000000"
 preserveAspectRatio="xMidYMid meet">
<metadata>
Created by potrace 1.11, written by Peter Selinger 2001-2013
</metadata>
<g transform="translate(0.000000,135.000000) scale(0.100000,-0.100000)"
fill="#000000" stroke="none">
<path d="M509 1321 c-295 -80 -498 -333 -502 -626 -2 -129 21 -233 74 -336 18
-36 90 -130 127 -167 80 -79 206 -145 324 -170 328 -70 649 107 767 422 31 84
36 118 35 241 -1 120 -16 190 -65 286 -87 174 -244 301 -433 348 -95 25 -240
25 -327 2z"/>
</g>
</svg>
